# xmcd
#
# Track frame offsets:
#	150
#	20295
#	43965
#	57802
#	66637
#	78030
#	99487
#	111195
#	124837
#	140887
#	153487
#	165437
#	181350
#	192850
#	209775
#	220762
#	230752
#	247762
#	259855
#	281850
#
# Disc length: 3924
#
# Revision: 1
# Processed by: cddbd v1.5.2PL0 Copyright (c) Steve Scherf et al.
# Submitted via: Broken Cross Disk Manager 3.92.2199
#
DISCID=2d0f5214
DTITLE=Gold City - Movin' Up-Portrait
DYEAR=1988
DGENRE=Country Gospel
TTITLE0=The Search Is Over
TTITLE1=Only God Knows
TTITLE2=Help Is On The Way
TTITLE3=New Jerusalem
TTITLE4=Wind, Rain And Fire
TTITLE5=Midnight Cry
TTITLE6=Movin' Up
TTITLE7=Movin' Up
TTITLE8=When He Reached Down His Hand
TTITLE9=Holy Annointing
TTITLE10=Jesus Will Lead Me
TTITLE11=Once Upon A Hill
TTITLE12=We're Gonna Rise
TTITLE13=Oh What A Day
TTITLE14=Have You Been Born Again
TTITLE15=I Love To Pray
TTITLE16=Shine Through Me
TTITLE17=Drink From The Well
TTITLE18=Calvary's Hill
TTITLE19=Still Small Voice
EXTD=
EXTT0=
EXTT1=
EXTT2=
EXTT3=
EXTT4=
EXTT5=
EXTT6=
EXTT7=
EXTT8=
EXTT9=
EXTT10=
EXTT11=
EXTT12=
EXTT13=
EXTT14=
EXTT15=
EXTT16=
EXTT17=
EXTT18=
EXTT19=
PLAYORDER=
